<svg id="svg" version="1.1" xmlns="http://www.w3.org/2000/svg" xmlns:xlink="http://www.w3.org/1999/xlink" width="400" height="93.2526339385788" viewBox="0, 0, 400,93.2526339385788"><g id="svgg"><path id="path0" d="M160.417 75.231 C 152.101 77.259,152.125 90.750,160.449 92.918 C 166.061 94.380,170.914 90.322,170.915 84.167 C 170.917 77.861,166.177 73.827,160.417 75.231 M268.351 75.170 C 262.682 76.363,260.292 83.071,263.267 89.440 C 265.974 95.233,276.020 93.953,277.402 87.638 C 277.490 87.237,276.144 86.667,275.112 86.667 C 275.072 86.667,274.959 86.985,274.860 87.375 C 273.752 91.750,267.552 92.380,265.430 88.333 C 264.564 86.680,264.218 83.739,264.675 81.917 C 264.768 81.550,264.873 81.122,264.911 80.965 C 265.979 76.468,272.566 75.660,274.458 79.794 C 274.916 80.793,274.852 80.777,276.533 80.325 C 277.300 80.118,277.307 80.021,276.647 78.750 C 275.152 75.868,271.836 74.437,268.351 75.170 M320.833 75.254 C 312.555 77.293,312.643 90.755,320.949 92.918 C 326.600 94.390,331.393 90.335,331.393 84.083 C 331.393 77.813,326.626 73.827,320.833 75.254 M353.504 75.183 C 348.687 76.126,345.872 82.161,347.729 87.566 C 350.426 95.421,361.676 94.880,363.580 86.804 C 365.276 79.609,360.287 73.854,353.504 75.183 M372.583 75.236 C 367.950 76.306,365.237 81.461,366.514 86.772 C 367.857 92.363,374.051 94.776,379.917 91.993 C 380.467 91.732,381.235 91.283,381.625 90.995 L 382.333 90.471 382.333 87.152 L 382.333 83.833 378.667 83.833 L 375.000 83.833 375.000 84.917 L 375.000 86.000 377.500 86.000 L 380.000 86.000 380.000 87.659 L 380.000 89.317 378.927 89.917 C 372.489 93.517,366.664 87.831,369.366 80.583 C 370.998 76.207,378.270 75.855,379.683 80.083 C 379.805 80.450,379.924 80.779,379.947 80.814 C 380.158 81.137,382.144 80.215,382.053 79.837 C 381.193 76.256,376.995 74.216,372.583 75.236 M121.167 84.074 L 121.167 92.833 122.333 92.833 L 123.500 92.833 123.500 89.351 L 123.500 85.868 126.792 85.796 C 129.833 85.730,130.170 85.692,131.228 85.293 C 135.384 83.723,135.661 77.760,131.667 75.854 C 130.752 75.418,130.737 75.417,125.958 75.366 L 121.167 75.315 121.167 84.074 M137.333 84.073 L 137.333 92.833 138.583 92.833 L 139.833 92.833 139.833 89.000 L 139.833 85.167 141.739 85.167 C 144.845 85.167,145.344 85.609,149.016 91.618 L 149.750 92.820 151.208 92.827 C 152.907 92.834,152.862 92.912,151.966 91.512 C 151.581 90.909,150.934 89.892,150.529 89.250 C 148.945 86.738,148.165 85.798,147.151 85.181 L 146.646 84.874 147.281 84.762 C 151.101 84.085,152.598 79.933,150.147 76.814 C 149.134 75.524,148.613 75.424,142.625 75.364 L 137.333 75.312 137.333 84.073 M174.000 84.083 L 174.000 92.833 175.167 92.833 L 176.333 92.833 176.333 88.917 L 176.333 85.000 180.417 85.000 L 184.500 85.000 184.500 83.833 L 184.500 82.667 180.417 82.667 L 176.333 82.667 176.333 80.083 L 176.333 77.500 181.083 77.500 L 185.833 77.500 185.833 76.417 L 185.833 75.333 179.917 75.333 L 174.000 75.333 174.000 84.083 M189.000 84.083 L 189.000 92.833 190.250 92.833 L 191.500 92.833 191.500 84.083 L 191.500 75.333 190.250 75.333 L 189.000 75.333 189.000 84.083 M195.333 84.083 L 195.333 92.833 200.833 92.833 L 206.333 92.833 206.333 91.750 L 206.333 90.667 202.083 90.667 L 197.833 90.667 197.833 83.000 L 197.833 75.333 196.583 75.333 L 195.333 75.333 195.333 84.083 M209.000 84.083 L 209.000 92.833 215.583 92.833 L 222.167 92.833 222.167 91.750 L 222.167 90.667 216.833 90.667 L 211.500 90.667 211.500 87.750 L 211.500 84.833 216.250 84.833 L 221.000 84.833 221.000 83.750 L 221.000 82.667 216.250 82.667 L 211.500 82.667 211.500 80.083 L 211.500 77.500 216.667 77.500 L 221.833 77.500 221.833 76.417 L 221.833 75.333 215.417 75.333 L 209.000 75.333 209.000 84.083 M230.200 76.375 L 230.250 77.417 233.125 77.462 L 236.000 77.508 236.000 85.171 L 236.000 92.833 237.250 92.833 L 238.500 92.833 238.500 85.167 L 238.500 77.500 241.333 77.500 L 244.167 77.500 244.167 76.417 L 244.167 75.333 237.159 75.333 L 230.151 75.333 230.200 76.375 M246.500 84.083 L 246.500 92.833 253.000 92.833 L 259.500 92.833 259.500 91.750 L 259.500 90.667 254.167 90.667 L 248.833 90.667 248.833 87.750 L 248.833 84.833 253.667 84.833 L 258.500 84.833 258.500 83.750 L 258.500 82.667 253.667 82.667 L 248.833 82.667 248.833 80.083 L 248.833 77.500 254.000 77.500 L 259.167 77.500 259.167 76.417 L 259.167 75.333 252.833 75.333 L 246.500 75.333 246.500 84.083 M280.333 84.083 L 280.333 92.833 281.583 92.833 L 282.833 92.833 282.833 88.750 L 282.833 84.667 287.250 84.667 L 291.667 84.667 291.667 88.750 L 291.667 92.833 292.833 92.833 L 294.000 92.833 294.000 84.083 L 294.000 75.333 292.833 75.333 L 291.667 75.333 291.667 78.917 L 291.667 82.500 287.250 82.500 L 282.833 82.500 282.833 78.917 L 282.833 75.333 281.583 75.333 L 280.333 75.333 280.333 84.083 M297.833 84.083 L 297.833 92.833 298.915 92.833 L 299.996 92.833 300.040 86.061 L 300.083 79.288 301.250 81.013 C 301.892 81.961,302.447 82.815,302.483 82.910 C 302.520 83.005,302.596 83.121,302.653 83.167 C 302.710 83.212,304.180 85.404,305.920 88.037 L 309.083 92.823 310.375 92.828 L 311.667 92.833 311.667 84.083 L 311.667 75.333 310.502 75.333 L 309.337 75.333 309.294 82.078 L 309.250 88.822 304.759 82.078 L 300.269 75.333 299.051 75.333 L 297.833 75.333 297.833 84.083 M334.167 84.083 L 334.167 92.833 339.667 92.833 L 345.167 92.833 345.167 91.750 L 345.167 90.667 340.917 90.667 L 336.667 90.667 336.667 83.000 L 336.667 75.333 335.417 75.333 L 334.167 75.333 334.167 84.083 M384.000 75.422 C 384.000 75.471,385.500 77.763,387.333 80.517 L 390.667 85.522 390.667 89.178 L 390.667 92.833 391.833 92.833 L 393.000 92.833 393.000 89.177 L 393.000 85.520 394.003 84.052 C 394.554 83.244,395.510 81.853,396.128 80.961 C 396.745 80.069,397.873 78.438,398.634 77.336 L 400.018 75.333 398.608 75.333 L 397.197 75.333 396.292 76.708 C 395.258 78.280,392.983 81.780,392.393 82.708 C 391.897 83.487,391.962 83.504,391.356 82.431 C 391.076 81.935,389.931 80.135,388.812 78.431 L 386.777 75.333 385.388 75.333 C 384.625 75.333,384.000 75.373,384.000 75.422 M357.969 77.672 C 360.685 78.870,362.070 82.920,361.076 86.757 C 359.674 92.167,352.138 92.542,350.148 87.300 C 349.531 85.673,349.562 82.397,350.210 80.742 C 351.419 77.656,354.853 76.297,357.969 77.672 M165.039 77.656 C 169.797 79.937,169.567 88.839,164.703 90.673 C 159.405 92.670,155.223 87.250,157.178 80.921 C 158.126 77.851,162.048 76.222,165.039 77.656 M325.601 77.711 C 330.425 80.187,329.978 89.256,324.958 90.747 C 319.543 92.355,315.801 87.248,317.667 80.796 C 318.509 77.884,322.737 76.241,325.601 77.711 M147.378 77.730 C 148.942 78.505,149.321 80.577,148.143 81.918 C 147.351 82.820,146.477 83.000,142.886 83.000 L 139.833 83.000 139.833 80.152 L 139.833 77.304 143.292 77.361 C 146.257 77.411,146.840 77.463,147.378 77.730 M130.591 77.891 C 132.177 78.851,132.438 81.228,131.111 82.628 C 130.317 83.467,129.854 83.545,125.875 83.517 L 123.500 83.500 123.500 80.487 L 123.500 77.475 126.792 77.529 C 129.635 77.576,130.152 77.625,130.591 77.891 " stroke="none" fill="#fc4444" fill-rule="evenodd"></path><path id="path1" d="M31.212 0.208 C 31.123 0.323,30.271 1.871,29.317 3.648 C 28.363 5.426,27.390 7.226,27.155 7.648 C 26.919 8.071,26.029 9.692,25.177 11.250 C 24.325 12.808,23.172 14.908,22.615 15.917 C 21.415 18.087,21.440 18.041,18.839 22.833 C 17.720 24.896,16.444 27.221,16.003 28.000 C 15.312 29.221,12.393 34.583,11.465 36.333 C 11.295 36.654,10.983 37.217,10.773 37.583 C 10.563 37.950,9.389 40.087,8.165 42.333 C 6.941 44.579,5.767 46.717,5.557 47.083 C 4.872 48.280,3.977 50.033,4.031 50.075 C 4.288 50.274,41.732 50.670,41.910 50.475 C 42.057 50.314,61.779 13.776,67.536 3.000 C 67.707 2.679,68.140 1.873,68.498 1.208 L 69.149 0.000 50.262 0.000 C 35.349 0.000,31.340 0.044,31.212 0.208 M204.500 0.114 C 193.396 1.263,186.752 7.492,186.755 16.750 C 186.757 24.135,190.862 29.731,198.250 32.421 C 198.708 32.588,199.158 32.778,199.250 32.844 C 199.549 33.061,203.353 34.141,207.705 35.247 C 212.521 36.470,215.163 37.284,216.652 38.006 C 217.213 38.278,217.719 38.500,217.776 38.500 C 218.785 38.500,220.552 41.341,220.641 43.105 C 220.931 48.846,213.875 52.760,205.940 51.261 C 200.807 50.292,197.895 47.140,196.334 40.862 C 196.258 40.557,196.170 40.281,196.139 40.250 C 196.088 40.199,187.487 41.004,185.188 41.274 L 184.292 41.380 184.391 42.215 C 184.550 43.556,185.568 47.730,185.823 48.083 C 185.889 48.175,186.080 48.625,186.247 49.083 C 188.428 55.049,194.044 59.620,200.882 60.997 C 201.818 61.185,202.958 61.421,203.417 61.520 C 203.875 61.620,205.938 61.738,208.000 61.783 C 220.159 62.047,227.439 58.690,231.152 51.109 C 235.468 42.298,231.985 31.447,223.583 27.525 C 220.115 25.906,217.924 25.195,210.909 23.413 C 200.979 20.891,198.601 19.554,198.375 16.366 C 198.100 12.479,201.753 10.242,208.333 10.268 C 214.859 10.293,217.856 12.583,218.952 18.379 L 219.039 18.841 220.728 18.757 C 221.657 18.710,223.767 18.632,225.417 18.582 C 227.067 18.532,229.035 18.445,229.792 18.388 L 231.167 18.284 231.163 17.600 C 231.107 5.934,219.815 -1.472,204.500 0.114 M143.966 2.373 C 143.035 4.874,142.314 6.761,142.165 7.083 C 141.888 7.684,140.167 12.137,140.167 12.253 C 140.167 12.315,140.058 12.603,139.925 12.891 C 139.578 13.648,137.833 18.118,137.833 18.253 C 137.833 18.315,137.725 18.603,137.592 18.891 C 137.459 19.180,136.931 20.504,136.418 21.833 C 135.320 24.681,133.781 28.641,132.241 32.583 C 131.065 35.593,130.309 37.535,129.417 39.833 C 129.114 40.612,128.597 41.944,128.267 42.792 C 127.937 43.640,127.412 44.990,127.100 45.792 C 126.788 46.594,126.256 47.962,125.917 48.833 C 125.577 49.704,125.052 51.054,124.750 51.833 C 124.448 52.612,123.924 53.948,123.588 54.802 C 123.251 55.655,122.835 56.743,122.665 57.219 C 122.494 57.694,122.170 58.533,121.945 59.083 C 121.719 59.633,121.485 60.252,121.423 60.458 L 121.311 60.833 127.787 60.833 L 134.263 60.833 134.699 59.542 C 134.939 58.831,135.523 57.200,135.997 55.917 C 136.470 54.633,136.970 53.246,137.107 52.833 C 137.244 52.421,137.454 51.858,137.575 51.583 C 137.695 51.308,137.949 50.633,138.139 50.083 C 138.330 49.533,138.631 48.708,138.809 48.250 L 139.133 47.417 151.034 47.374 L 162.935 47.331 163.208 47.957 C 163.359 48.302,163.682 49.146,163.925 49.833 C 164.169 50.521,164.468 51.308,164.589 51.583 C 164.710 51.858,164.999 52.608,165.231 53.250 C 165.463 53.892,165.965 55.242,166.348 56.250 C 166.731 57.258,167.268 58.702,167.543 59.458 L 168.042 60.833 174.604 60.833 C 178.277 60.833,181.167 60.769,181.167 60.687 C 181.167 60.516,180.414 58.484,180.079 57.750 C 179.953 57.475,179.427 56.163,178.910 54.833 C 178.392 53.504,177.793 52.004,177.578 51.500 C 177.156 50.510,175.429 46.195,174.644 44.167 C 174.377 43.479,174.088 42.767,174.001 42.583 C 173.915 42.400,173.386 41.087,172.828 39.667 C 172.269 38.246,171.712 36.858,171.590 36.583 C 171.467 36.308,170.945 34.996,170.428 33.667 C 169.911 32.337,169.417 31.100,169.329 30.917 C 169.124 30.490,167.089 25.422,166.552 24.000 C 166.327 23.404,166.038 22.692,165.911 22.417 C 165.693 21.946,165.359 21.109,164.163 18.042 C 163.886 17.331,163.587 16.600,163.498 16.417 C 163.409 16.233,163.142 15.558,162.905 14.917 C 162.668 14.275,162.372 13.525,162.248 13.250 C 162.123 12.975,161.564 11.588,161.006 10.167 C 160.447 8.746,159.918 7.433,159.830 7.250 C 159.742 7.067,159.486 6.429,159.262 5.833 C 159.038 5.237,158.767 4.563,158.661 4.333 C 158.554 4.104,158.230 3.317,157.942 2.583 L 157.417 1.250 150.916 1.206 L 144.416 1.163 143.966 2.373 M243.000 30.987 L 243.000 60.833 249.083 60.833 L 255.167 60.833 255.167 49.608 L 255.167 38.383 262.375 38.283 C 273.084 38.135,275.578 37.830,278.917 36.262 C 282.635 34.515,285.117 32.078,287.005 28.323 C 289.336 23.688,289.367 15.727,287.074 10.764 C 285.060 6.405,281.212 3.171,276.667 2.017 C 273.969 1.332,273.052 1.293,257.792 1.216 L 243.000 1.141 243.000 30.987 M309.242 1.540 C 309.138 1.883,308.852 2.629,307.068 7.208 C 306.756 8.010,306.237 9.342,305.917 10.167 C 305.596 10.992,305.071 12.342,304.750 13.167 C 304.429 13.992,303.904 15.342,303.583 16.167 C 302.978 17.724,302.573 18.764,300.826 23.250 C 298.905 28.181,297.330 32.236,296.552 34.250 C 296.128 35.350,295.642 36.565,295.474 36.949 C 295.305 37.334,295.167 37.696,295.167 37.754 C 295.167 37.884,293.412 42.376,293.075 43.109 C 292.942 43.397,292.833 43.685,292.833 43.747 C 292.833 43.882,291.089 48.352,290.741 49.109 C 290.609 49.397,290.500 49.676,290.500 49.728 C 290.500 49.831,288.788 54.269,288.434 55.083 C 288.314 55.358,288.134 55.808,288.032 56.083 C 287.931 56.358,287.507 57.467,287.091 58.547 C 286.674 59.627,286.333 60.584,286.333 60.674 C 286.333 60.779,288.651 60.822,292.780 60.794 L 299.226 60.750 299.754 59.250 C 300.044 58.425,300.328 57.637,300.386 57.500 C 300.531 57.156,301.412 54.714,302.010 53.000 C 302.282 52.221,302.607 51.358,302.732 51.083 C 302.857 50.808,303.129 50.058,303.336 49.417 C 303.543 48.775,303.816 48.044,303.944 47.792 L 304.175 47.333 316.075 47.333 L 327.974 47.333 328.173 47.958 C 328.283 48.302,328.472 48.808,328.593 49.083 C 328.714 49.358,329.270 50.821,329.828 52.333 C 330.386 53.846,330.912 55.233,330.996 55.417 C 331.173 55.800,333.000 60.684,333.000 60.774 C 333.000 60.807,335.962 60.833,339.583 60.833 C 343.204 60.833,346.167 60.799,346.167 60.756 C 346.167 60.631,345.482 58.805,345.164 58.083 C 345.002 57.717,344.445 56.329,343.926 55.000 C 343.407 53.671,342.882 52.358,342.758 52.083 C 342.635 51.808,342.113 50.496,341.597 49.167 C 341.082 47.837,340.558 46.521,340.432 46.241 C 340.306 45.960,339.776 44.648,339.254 43.324 C 338.732 42.000,338.205 40.692,338.082 40.417 C 337.959 40.142,337.432 38.829,336.911 37.500 C 336.390 36.171,335.865 34.858,335.743 34.583 C 335.621 34.308,335.064 32.921,334.506 31.500 C 333.947 30.079,333.419 28.767,333.332 28.583 C 333.245 28.400,332.947 27.669,332.670 26.958 C 332.393 26.248,331.940 25.085,331.663 24.375 C 331.386 23.665,331.087 22.933,330.998 22.750 C 330.909 22.567,330.642 21.892,330.404 21.250 C 330.166 20.608,329.916 20.008,329.847 19.917 C 329.779 19.825,329.551 19.262,329.342 18.667 C 329.132 18.071,328.829 17.283,328.668 16.917 C 328.508 16.550,328.222 15.838,328.033 15.333 C 327.844 14.829,327.601 14.229,327.492 14.000 C 327.384 13.771,326.192 10.808,324.842 7.417 L 322.389 1.250 315.873 1.206 L 309.357 1.163 309.242 1.540 M352.500 31.000 L 352.500 60.833 358.166 60.833 L 363.832 60.833 363.874 41.458 L 363.917 22.083 364.472 23.000 C 364.777 23.504,365.339 24.421,365.722 25.038 C 366.104 25.655,366.746 26.705,367.148 27.372 C 367.551 28.038,368.120 28.958,368.413 29.417 C 369.060 30.429,372.147 35.428,373.611 37.833 C 374.197 38.796,375.192 40.408,375.822 41.417 C 376.453 42.425,377.482 44.095,378.109 45.127 C 378.737 46.159,379.567 47.509,379.954 48.127 C 380.341 48.745,380.809 49.512,380.994 49.833 C 381.179 50.154,381.666 50.942,382.076 51.583 C 382.485 52.225,383.087 53.200,383.414 53.750 C 383.740 54.300,384.567 55.650,385.252 56.750 C 385.936 57.850,386.775 59.219,387.116 59.792 L 387.736 60.833 393.868 60.833 L 400.000 60.833 400.000 31.000 L 400.000 1.167 394.333 1.167 L 388.667 1.167 388.661 20.958 L 388.656 40.750 388.255 40.083 C 388.034 39.717,387.792 39.342,387.715 39.250 C 387.639 39.158,387.091 38.276,386.497 37.288 C 385.903 36.301,385.117 35.007,384.750 34.412 C 384.383 33.818,383.558 32.468,382.917 31.414 C 382.275 30.359,381.433 28.991,381.046 28.373 C 380.659 27.755,380.191 26.988,380.006 26.667 C 379.821 26.346,379.336 25.558,378.930 24.917 C 378.523 24.275,377.679 22.905,377.053 21.873 C 376.428 20.841,375.600 19.491,375.213 18.873 C 374.826 18.255,374.358 17.487,374.173 17.167 C 373.987 16.846,373.504 16.058,373.098 15.417 C 372.692 14.775,371.772 13.281,371.055 12.096 C 370.337 10.911,369.511 9.561,369.219 9.096 C 368.926 8.631,368.507 7.950,368.286 7.583 C 367.685 6.583,365.286 2.682,364.776 1.874 L 364.329 1.167 358.415 1.167 L 352.500 1.167 352.500 31.000 M74.657 11.183 C 73.700 12.846,72.564 14.817,72.133 15.562 C 71.702 16.307,71.079 17.404,70.749 18.000 C 70.161 19.061,69.837 19.625,67.969 22.833 C 66.349 25.617,63.125 31.224,62.699 32.000 C 62.473 32.412,62.122 33.012,61.920 33.333 C 60.990 34.810,57.833 40.482,57.833 40.677 C 57.833 40.797,58.297 41.688,58.864 42.656 C 59.835 44.315,63.035 49.826,63.661 50.917 C 63.819 51.192,64.894 53.040,66.051 55.025 C 67.207 57.009,68.296 58.884,68.470 59.191 C 68.645 59.499,69.426 60.837,70.206 62.167 C 70.987 63.496,71.776 64.846,71.959 65.167 C 72.701 66.463,74.755 70.007,75.581 71.417 C 76.065 72.242,76.609 73.179,76.790 73.500 C 76.972 73.821,77.759 75.171,78.540 76.500 C 79.320 77.829,80.107 79.179,80.289 79.500 C 80.470 79.821,81.013 80.758,81.495 81.583 C 81.976 82.408,82.676 83.608,83.050 84.250 C 83.424 84.892,84.053 85.959,84.448 86.622 C 84.843 87.285,85.167 87.892,85.167 87.971 C 85.167 88.206,85.877 88.765,85.944 88.583 C 85.978 88.492,86.186 88.117,86.407 87.750 C 86.628 87.383,87.065 86.633,87.378 86.083 C 87.692 85.533,88.247 84.558,88.613 83.917 C 88.979 83.275,89.973 81.550,90.822 80.083 C 91.672 78.617,92.896 76.479,93.542 75.333 C 94.188 74.188,94.882 72.987,95.085 72.667 C 95.288 72.346,95.640 71.746,95.866 71.333 C 96.302 70.539,99.227 65.425,99.488 65.000 C 100.589 63.206,104.333 56.498,104.333 56.319 C 104.333 56.105,102.899 53.500,101.404 51.000 C 101.103 50.496,100.603 49.633,100.293 49.083 C 99.983 48.533,99.179 47.146,98.506 46.000 C 97.833 44.854,97.013 43.447,96.683 42.873 C 95.790 41.319,92.671 35.941,91.985 34.771 C 91.380 33.741,89.406 30.361,88.420 28.667 C 88.126 28.162,87.039 26.287,86.004 24.500 C 84.969 22.712,83.882 20.837,83.588 20.333 C 82.323 18.165,80.605 15.212,80.339 14.750 C 78.162 10.959,76.741 8.543,76.587 8.371 C 76.441 8.208,76.004 8.844,74.657 11.183 M267.170 11.497 C 273.769 11.925,277.253 15.924,276.007 21.641 C 274.901 26.717,271.225 28.159,259.375 28.165 L 255.167 28.167 255.167 19.750 L 255.167 11.333 259.958 11.337 C 262.594 11.339,265.839 11.411,267.170 11.497 M316.898 18.333 C 317.421 19.754,317.920 21.067,318.008 21.250 C 318.096 21.433,318.350 22.108,318.572 22.750 C 318.794 23.392,319.324 24.817,319.748 25.917 C 320.173 27.017,320.699 28.404,320.918 29.000 C 321.138 29.596,321.610 30.871,321.969 31.833 C 323.452 35.813,323.833 36.854,323.833 36.925 C 323.833 36.966,320.235 37.000,315.836 37.000 L 307.839 37.000 308.262 35.875 C 308.495 35.256,308.903 34.150,309.168 33.417 C 309.433 32.683,309.957 31.258,310.333 30.250 C 310.709 29.242,311.238 27.779,311.508 27.000 C 311.778 26.221,312.074 25.433,312.167 25.250 C 312.259 25.067,312.556 24.279,312.826 23.500 C 313.594 21.286,314.324 19.297,314.569 18.750 C 314.692 18.475,314.998 17.625,315.248 16.860 C 315.795 15.193,315.718 15.125,316.898 18.333 M151.308 16.625 C 151.494 17.152,151.916 18.296,152.246 19.167 C 152.576 20.037,153.102 21.425,153.415 22.250 C 153.727 23.075,154.254 24.462,154.585 25.333 C 154.916 26.204,155.402 27.517,155.666 28.250 C 155.930 28.983,156.493 30.483,156.918 31.583 C 157.343 32.683,157.865 34.071,158.078 34.667 C 158.292 35.262,158.588 36.031,158.736 36.375 L 159.004 37.000 150.917 37.000 L 142.829 37.000 143.095 36.375 C 143.242 36.031,143.584 35.112,143.855 34.333 C 144.127 33.554,144.419 32.767,144.505 32.583 C 144.671 32.229,145.364 30.328,146.177 28.000 C 146.449 27.221,146.774 26.358,146.899 26.083 C 147.024 25.808,147.296 25.058,147.502 24.417 C 147.709 23.775,147.931 23.175,147.995 23.083 C 148.060 22.992,148.353 22.204,148.646 21.333 C 148.940 20.462,149.252 19.600,149.340 19.417 C 149.429 19.233,149.682 18.558,149.904 17.917 C 150.816 15.280,150.829 15.269,151.308 16.625 M-0.000 58.948 C -0.000 59.041,0.407 59.785,0.905 60.600 C 1.403 61.416,2.307 62.908,2.915 63.917 C 3.522 64.925,4.422 66.408,4.914 67.212 C 5.406 68.016,5.833 68.729,5.862 68.795 C 5.929 68.944,7.117 70.918,8.743 73.583 C 9.414 74.683,10.657 76.746,11.505 78.167 C 12.353 79.587,13.165 80.938,13.309 81.167 C 14.120 82.452,18.386 89.515,18.675 90.052 C 18.863 90.401,19.278 91.095,19.597 91.594 L 20.177 92.500 29.547 92.500 C 34.700 92.500,47.523 92.550,58.042 92.611 C 74.475 92.706,77.166 92.689,77.160 92.486 C 77.157 92.356,76.913 91.858,76.619 91.379 C 76.324 90.901,75.714 89.888,75.262 89.129 C 74.371 87.633,73.765 86.628,70.139 80.634 C 68.825 78.461,67.525 76.303,67.250 75.836 C 66.975 75.370,65.662 73.194,64.333 71.000 C 63.004 68.806,61.692 66.631,61.417 66.167 C 61.142 65.702,60.063 63.900,59.019 62.161 L 57.121 59.000 41.588 59.000 C 33.045 59.000,20.193 58.950,13.028 58.889 C 4.242 58.815,-0.000 58.834,-0.000 58.948 M176.401 80.083 C 176.401 81.550,176.427 82.128,176.457 81.367 C 176.488 80.606,176.488 79.406,176.457 78.700 C 176.426 77.994,176.401 78.617,176.401 80.083 M176.405 88.917 C 176.405 91.117,176.429 91.994,176.458 90.865 C 176.487 89.737,176.487 87.937,176.458 86.865 C 176.429 85.794,176.405 86.717,176.405 88.917 M390.571 89.167 C 390.571 91.229,390.595 92.073,390.624 91.042 C 390.654 90.010,390.654 88.323,390.624 87.292 C 390.595 86.260,390.571 87.104,390.571 89.167 " stroke="none" fill="#fc0404" fill-rule="evenodd"></path><path id="path2" d="M121.078 84.083 C 121.078 88.942,121.099 90.905,121.125 88.447 C 121.151 85.988,121.151 82.013,121.125 79.613 C 121.099 77.213,121.078 79.225,121.078 84.083 M297.744 84.083 C 297.744 88.942,297.766 90.905,297.792 88.447 C 297.818 85.988,297.818 82.013,297.792 79.613 C 297.766 77.213,297.744 79.225,297.744 84.083 M173.911 84.167 C 173.911 88.979,173.932 90.948,173.958 88.542 C 173.984 86.135,173.984 82.198,173.958 79.792 C 173.932 77.385,173.911 79.354,173.911 84.167 M269.875 77.115 C 270.035 77.157,270.298 77.157,270.458 77.115 C 270.619 77.073,270.487 77.039,270.167 77.039 C 269.846 77.039,269.715 77.073,269.875 77.115 M374.708 77.115 C 374.869 77.157,375.131 77.157,375.292 77.115 C 375.452 77.073,375.321 77.039,375.000 77.039 C 374.679 77.039,374.548 77.073,374.708 77.115 M300.076 86.083 C 300.076 89.842,300.098 91.403,300.125 89.553 C 300.152 87.703,300.152 84.628,300.125 82.719 C 300.098 80.811,300.076 82.325,300.076 86.083 M382.403 87.167 C 382.403 88.954,382.428 89.685,382.458 88.792 C 382.488 87.898,382.488 86.435,382.458 85.542 C 382.428 84.648,382.403 85.379,382.403 87.167 M259.553 91.833 C 259.553 92.429,259.584 92.673,259.621 92.375 C 259.658 92.077,259.658 91.590,259.621 91.292 C 259.584 90.994,259.553 91.237,259.553 91.833 M345.220 91.833 C 345.220 92.429,345.250 92.673,345.287 92.375 C 345.324 92.077,345.324 91.590,345.287 91.292 C 345.250 90.994,345.220 91.237,345.220 91.833 " stroke="none" fill="#fc3848" fill-rule="evenodd"></path><path id="path3" d="M309.243 82.083 C 309.243 85.842,309.265 87.403,309.291 85.553 C 309.318 83.703,309.318 80.628,309.292 78.719 C 309.265 76.811,309.243 78.325,309.243 82.083 M368.709 84.083 C 368.711 84.450,368.745 84.580,368.785 84.373 C 368.824 84.166,368.823 83.866,368.781 83.706 C 368.739 83.547,368.707 83.717,368.709 84.083 " stroke="none" fill="#fc1428" fill-rule="evenodd"></path><path id="path4" d="M374.885 84.917 C 374.886 85.467,374.917 85.672,374.954 85.372 C 374.991 85.072,374.990 84.622,374.952 84.372 C 374.914 84.122,374.884 84.367,374.885 84.917 " stroke="none" fill="#fc1804" fill-rule="evenodd"></path></g></svg>