<svg id="svg" version="1.1" xmlns="http://www.w3.org/2000/svg" xmlns:xlink="http://www.w3.org/1999/xlink" width="400" height="221.08338952573612" viewBox="0, 0, 400,221.08338952573612"><g id="svgg"><path id="path0" d="M221.312 0.068 C 221.278 0.097,216.262 0.171,210.167 0.231 C 190.766 0.424,183.589 0.521,183.369 0.592 C 183.252 0.629,179.689 0.675,175.453 0.693 C 154.758 0.780,150.027 1.138,143.732 3.089 C 141.790 3.691,138.382 5.316,137.495 6.062 C 137.209 6.303,136.907 6.500,136.826 6.500 C 136.744 6.500,136.018 7.157,135.213 7.959 C 131.789 11.374,130.161 15.073,129.146 21.750 C 128.873 23.543,128.730 74.271,128.987 77.833 C 129.247 81.423,130.074 85.304,131.058 87.548 C 132.581 91.019,133.950 93.103,136.225 95.411 C 140.984 100.239,149.961 103.701,155.680 102.915 L 156.448 102.809 156.570 90.530 C 156.637 83.776,156.716 77.087,156.745 75.667 C 156.855 70.325,156.830 49.103,156.709 45.500 C 156.230 31.217,157.034 29.492,164.791 28.161 C 167.655 27.669,167.007 27.676,220.654 27.584 C 248.376 27.536,271.075 27.479,271.095 27.457 C 271.205 27.336,270.816 23.014,270.581 21.741 C 268.420 10.053,260.947 2.334,249.747 0.221 C 249.123 0.103,221.445 -0.046,221.312 0.068 M185.243 58.708 C 185.200 58.823,185.183 66.529,185.207 75.833 L 185.250 92.750 202.375 92.792 L 219.500 92.835 219.500 75.667 L 219.500 58.500 202.411 58.500 C 188.894 58.500,185.306 58.544,185.243 58.708 M243.487 61.542 C 243.480 63.215,243.451 64.706,243.422 64.856 C 243.183 66.082,243.056 98.836,243.257 107.250 C 243.492 117.069,243.463 119.509,243.095 120.917 C 242.125 124.625,240.061 126.220,235.333 126.917 C 231.671 127.457,229.729 127.499,208.378 127.499 L 186.840 127.500 186.835 141.349 L 186.830 155.198 190.040 155.101 C 191.806 155.047,196.063 154.965,199.500 154.918 C 211.682 154.751,217.295 154.664,221.000 154.584 C 223.063 154.539,227.938 154.463,231.833 154.414 C 235.729 154.365,239.554 154.288,240.333 154.243 C 241.112 154.198,242.463 154.124,243.333 154.079 C 261.306 153.143,269.043 147.258,270.826 133.167 C 271.141 130.674,271.063 88.055,270.739 85.854 C 268.707 72.048,259.401 60.869,248.326 58.930 C 247.157 58.725,245.060 58.502,244.292 58.501 L 243.500 58.500 243.487 61.542 M130.348 129.177 C 130.434 132.443,131.541 136.895,132.997 139.833 C 137.465 148.848,145.783 154.397,155.875 155.094 L 157.500 155.206 157.520 145.061 C 157.531 139.482,157.550 133.342,157.562 131.417 L 157.583 127.917 143.948 127.873 L 130.312 127.829 130.348 129.177 " stroke="none" fill="#349414" fill-rule="evenodd"></path><path id="path1" d="M11.818 184.674 C 4.584 185.319,0.313 189.395,0.738 195.250 C 1.116 200.452,4.378 203.107,12.804 205.069 C 18.353 206.362,19.947 207.244,20.579 209.371 C 21.641 212.948,18.103 215.925,13.167 215.609 C 9.701 215.387,8.269 214.224,6.441 210.145 C 4.566 205.959,-0.166 206.653,0.043 211.083 C 0.391 218.499,10.322 223.085,19.833 220.223 C 25.624 218.480,28.748 213.707,27.824 208.015 C 27.071 203.371,24.024 200.967,16.500 199.077 C 12.331 198.031,11.152 197.670,9.932 197.067 C 5.123 194.694,7.502 189.928,13.500 189.919 C 16.803 189.915,18.029 190.669,19.821 193.809 C 21.152 196.139,21.774 196.667,23.194 196.667 C 25.368 196.667,26.831 194.609,26.358 192.217 C 25.567 188.216,21.383 185.202,15.874 184.667 C 14.072 184.491,13.865 184.492,11.818 184.674 M58.750 184.650 C 57.903 184.804,56.876 185.336,56.288 185.924 C 55.416 186.796,54.909 187.861,52.923 193.000 C 52.409 194.329,51.917 195.567,51.829 195.750 C 51.742 195.933,51.479 196.608,51.247 197.250 C 51.014 197.892,50.754 198.567,50.668 198.750 C 50.583 198.933,49.866 200.733,49.075 202.750 C 48.285 204.767,47.164 207.617,46.584 209.083 C 46.005 210.550,45.183 212.650,44.758 213.750 C 44.333 214.850,43.913 215.922,43.826 216.133 C 42.855 218.469,44.735 221.099,47.283 220.971 C 49.136 220.878,49.836 220.059,51.105 216.500 C 51.350 215.813,51.648 215.025,51.768 214.750 C 51.888 214.475,52.165 213.762,52.385 213.167 L 52.784 212.083 59.857 212.040 L 66.931 211.996 67.289 213.040 C 69.523 219.551,70.516 221.000,72.747 221.000 C 75.446 221.000,76.997 218.590,76.017 215.917 C 75.849 215.458,75.557 214.656,75.368 214.134 C 75.179 213.612,74.909 212.937,74.768 212.634 C 74.627 212.331,73.794 210.283,72.917 208.083 C 72.040 205.883,71.252 203.933,71.166 203.750 C 71.080 203.567,70.594 202.367,70.085 201.083 C 69.576 199.800,69.087 198.600,68.998 198.417 C 68.909 198.233,68.649 197.577,68.420 196.958 C 68.190 196.340,67.927 195.702,67.835 195.542 C 67.743 195.381,67.435 194.650,67.151 193.917 C 66.028 191.016,65.653 190.070,65.501 189.750 C 65.414 189.567,65.190 189.019,65.004 188.533 C 63.889 185.626,61.506 184.147,58.750 184.650 M146.833 184.669 C 144.728 185.050,143.684 186.267,142.187 190.083 C 141.791 191.092,140.919 193.304,140.249 195.000 C 139.579 196.696,138.684 198.983,138.261 200.083 C 137.837 201.183,137.420 202.233,137.334 202.417 C 137.248 202.600,136.756 203.838,136.241 205.167 C 135.726 206.496,134.665 209.189,133.884 211.152 C 133.102 213.115,132.322 215.133,132.148 215.637 C 131.058 218.807,132.676 221.220,135.723 220.968 C 137.356 220.832,137.908 220.044,139.668 215.333 C 140.130 214.096,140.618 212.839,140.752 212.540 L 140.996 211.996 148.023 212.040 L 155.050 212.083 155.261 212.667 C 157.863 219.845,158.462 220.803,160.444 220.968 C 161.864 221.085,162.445 220.897,163.332 220.031 C 164.928 218.474,164.854 217.538,162.715 212.261 C 161.932 210.330,161.073 208.188,160.806 207.500 C 160.539 206.813,160.183 205.950,160.015 205.583 C 159.847 205.217,159.653 204.729,159.582 204.500 C 159.512 204.271,159.279 203.700,159.066 203.231 C 158.852 202.762,158.497 201.900,158.276 201.314 C 157.856 200.200,155.808 195.112,155.432 194.250 C 155.312 193.975,154.659 192.362,153.982 190.667 C 151.906 185.471,150.219 184.055,146.833 184.669 M242.354 184.661 C 241.328 184.914,240.451 185.680,240.047 186.674 L 239.677 187.583 239.672 202.452 C 239.666 220.045,239.573 219.286,241.817 220.078 C 243.122 220.538,262.243 220.453,263.338 219.982 C 265.364 219.110,265.358 215.971,263.328 214.834 L 262.583 214.417 254.797 214.365 L 247.011 214.313 246.964 200.865 L 246.917 187.417 246.417 186.505 C 245.612 185.037,243.926 184.272,242.354 184.661 M293.583 184.649 C 291.757 184.975,290.326 186.452,289.401 188.967 C 289.175 189.581,288.919 190.233,288.833 190.417 C 288.746 190.600,288.514 191.200,288.316 191.750 C 288.119 192.300,287.818 193.062,287.648 193.443 C 287.351 194.109,286.992 195.027,286.077 197.458 C 285.844 198.077,285.549 198.808,285.422 199.083 C 285.295 199.358,285.007 200.071,284.781 200.667 C 284.556 201.262,284.060 202.537,283.679 203.500 C 283.298 204.463,282.794 205.775,282.557 206.417 C 282.321 207.058,282.074 207.658,282.009 207.750 C 281.943 207.842,281.719 208.404,281.510 209.000 C 281.301 209.596,281.030 210.308,280.908 210.583 C 279.624 213.470,278.500 216.755,278.500 217.618 C 278.500 221.067,283.477 222.350,284.829 219.250 C 284.989 218.883,285.272 218.246,285.458 217.833 C 285.777 217.123,286.120 216.225,287.172 213.333 L 287.627 212.083 294.714 212.040 L 301.802 211.996 302.141 212.957 C 302.490 213.945,303.399 216.343,303.927 217.667 C 304.787 219.822,305.856 220.861,307.325 220.967 C 310.130 221.170,311.817 218.844,310.929 216.000 C 310.710 215.298,308.682 210.150,308.335 209.417 C 308.249 209.233,307.462 207.283,306.586 205.083 C 305.710 202.883,304.921 200.933,304.832 200.750 C 304.743 200.567,304.482 199.910,304.253 199.292 C 304.024 198.673,303.761 198.036,303.668 197.875 C 303.576 197.715,303.284 197.021,303.020 196.333 C 302.382 194.675,300.520 190.005,300.329 189.583 C 300.246 189.400,299.993 188.821,299.767 188.296 C 298.532 185.431,296.365 184.153,293.583 184.649 M339.000 184.674 C 331.213 185.377,326.857 190.326,328.248 196.891 C 329.143 201.118,332.113 203.057,341.163 205.324 C 346.549 206.673,348.000 207.784,348.000 210.558 C 348.000 213.454,345.617 215.354,341.667 215.609 C 338.046 215.842,335.956 214.656,334.422 211.500 C 333.086 208.752,332.883 208.428,332.189 207.931 C 329.799 206.217,326.914 208.418,327.352 211.621 C 328.230 218.037,336.089 222.213,344.667 220.822 C 351.324 219.742,355.243 215.703,355.248 209.917 C 355.253 204.145,352.238 201.237,344.083 199.151 C 339.358 197.943,338.474 197.678,337.320 197.121 C 332.399 194.750,334.760 189.911,340.833 189.919 C 344.183 189.923,345.183 190.537,347.078 193.748 C 348.532 196.211,348.980 196.583,350.487 196.583 C 352.523 196.583,353.667 195.366,353.667 193.199 C 353.667 188.824,349.213 185.214,343.139 184.666 C 341.216 184.493,341.004 184.493,339.000 184.674 M96.792 185.337 C 95.321 185.569,94.552 186.078,94.031 187.164 C 93.774 187.701,93.750 189.052,93.750 203.167 L 93.750 218.583 94.213 219.371 C 95.554 221.653,99.083 221.583,100.293 219.250 C 100.913 218.053,100.996 217.196,100.998 211.958 L 101.000 206.833 104.887 206.833 C 112.587 206.833,116.614 205.548,118.628 202.449 C 118.878 202.065,119.166 201.661,119.268 201.553 C 120.442 200.305,120.851 194.471,119.943 191.917 C 119.401 190.393,118.576 189.060,117.574 188.088 C 116.613 187.156,116.482 187.065,115.386 186.564 C 114.853 186.321,114.288 186.058,114.130 185.979 C 112.890 185.363,99.717 184.875,96.792 185.337 M198.083 185.324 C 196.460 185.591,195.506 186.315,195.123 187.574 C 194.966 188.089,194.917 191.818,194.917 203.250 L 194.917 218.250 195.333 219.075 C 196.695 221.771,200.264 221.712,201.706 218.969 C 202.073 218.269,202.085 218.101,202.135 212.542 L 202.187 206.833 206.094 206.833 C 216.333 206.833,220.366 204.586,221.588 198.200 C 222.826 191.731,219.471 186.581,213.310 185.493 C 212.031 185.267,199.289 185.125,198.083 185.324 M372.549 185.338 C 369.822 185.891,369.058 189.141,371.295 190.674 C 371.889 191.082,371.911 191.084,376.606 191.132 L 381.320 191.181 381.370 204.716 C 381.425 219.472,381.385 218.884,382.397 219.978 C 383.672 221.357,386.278 221.399,387.533 220.062 C 388.633 218.890,388.579 219.654,388.630 204.708 L 388.676 191.167 393.177 191.167 C 398.178 191.167,398.392 191.130,399.286 190.112 C 400.549 188.673,400.061 186.302,398.341 185.519 C 397.677 185.217,373.970 185.050,372.549 185.338 M107.500 190.832 C 111.530 191.230,113.059 192.649,113.071 196.000 C 113.085 199.838,111.011 201.136,104.625 201.288 L 101.000 201.374 101.000 196.020 L 101.000 190.667 103.458 190.671 C 104.810 190.673,106.629 190.746,107.500 190.832 M208.830 190.841 C 212.878 191.256,214.250 192.544,214.250 195.929 C 214.250 199.971,212.365 201.168,205.792 201.298 L 202.167 201.370 202.167 196.018 L 202.167 190.667 204.649 190.667 C 206.014 190.667,207.896 190.745,208.830 190.841 M60.445 194.208 C 60.730 195.056,61.240 196.500,61.579 197.417 C 61.918 198.333,62.376 199.608,62.597 200.250 C 62.818 200.892,63.073 201.567,63.163 201.750 C 63.310 202.051,64.833 206.337,64.833 206.452 C 64.833 206.478,62.583 206.500,59.833 206.500 C 56.507 206.500,54.833 206.442,54.833 206.328 C 54.833 206.176,55.325 204.807,56.117 202.750 C 56.258 202.383,56.623 201.371,56.928 200.500 C 57.232 199.629,57.827 197.979,58.250 196.833 C 58.673 195.688,59.179 194.281,59.375 193.708 C 59.831 192.379,59.831 192.379,60.445 194.208 M148.334 193.667 C 148.458 194.079,148.612 194.492,148.675 194.583 C 148.737 194.675,148.958 195.275,149.165 195.917 C 149.372 196.558,149.679 197.421,149.846 197.833 C 150.014 198.246,150.579 199.783,151.102 201.250 C 151.625 202.717,152.264 204.498,152.522 205.208 L 152.991 206.500 147.939 206.500 L 142.886 206.500 143.448 204.875 C 143.757 203.981,144.120 203.014,144.255 202.725 C 144.390 202.436,144.500 202.153,144.500 202.095 C 144.500 201.972,147.223 194.395,147.632 193.382 C 147.952 192.589,148.018 192.616,148.334 193.667 M295.131 193.708 C 296.099 196.489,296.699 198.131,296.922 198.609 C 297.056 198.897,297.167 199.180,297.167 199.236 C 297.167 199.355,298.463 202.986,299.178 204.870 C 299.447 205.577,299.667 206.233,299.667 206.328 C 299.667 206.442,297.993 206.500,294.667 206.500 C 291.917 206.500,289.667 206.481,289.667 206.458 C 289.667 206.435,290.007 205.479,290.424 204.333 C 290.840 203.187,291.475 201.425,291.835 200.417 C 292.194 199.408,292.712 197.983,292.984 197.250 C 293.257 196.517,293.726 195.185,294.025 194.292 C 294.670 192.371,294.666 192.373,295.131 193.708 " stroke="none" fill="#040404" fill-rule="evenodd"></path><path id="path2" d="" stroke="none" fill="#349c14" fill-rule="evenodd"></path><path id="path3" d="M206.042 0.282 C 206.202 0.323,206.465 0.323,206.625 0.282 C 206.785 0.240,206.654 0.205,206.333 0.205 C 206.012 0.205,205.881 0.240,206.042 0.282 M191.877 0.453 C 192.131 0.491,192.506 0.490,192.711 0.451 C 192.916 0.411,192.708 0.380,192.250 0.381 C 191.792 0.382,191.624 0.415,191.877 0.453 M156.900 58.917 C 156.900 60.292,156.926 60.832,156.957 60.117 C 156.989 59.403,156.988 58.278,156.957 57.617 C 156.925 56.957,156.900 57.542,156.900 58.917 M156.717 77.000 C 156.717 77.504,156.748 77.710,156.786 77.458 C 156.824 77.206,156.824 76.794,156.786 76.542 C 156.748 76.290,156.717 76.496,156.717 77.000 M243.056 91.167 C 243.056 91.854,243.085 92.135,243.121 91.792 C 243.157 91.448,243.157 90.885,243.121 90.542 C 243.085 90.198,243.056 90.479,243.056 91.167 M271.081 109.583 C 271.081 120.033,271.101 124.333,271.125 119.138 C 271.149 113.943,271.149 105.393,271.125 100.138 C 271.101 94.883,271.081 99.133,271.081 109.583 M243.050 101.333 C 243.050 101.837,243.081 102.044,243.119 101.792 C 243.158 101.540,243.158 101.127,243.119 100.875 C 243.081 100.623,243.050 100.829,243.050 101.333 M138.333 147.417 C 138.644 147.737,138.936 148.000,138.982 148.000 C 139.028 148.000,138.811 147.737,138.500 147.417 C 138.189 147.096,137.897 146.833,137.851 146.833 C 137.805 146.833,138.022 147.096,138.333 147.417 " stroke="none" fill="#1c980c" fill-rule="evenodd"></path><path id="path4" d="M206.042 0.282 C 206.202 0.323,206.465 0.323,206.625 0.282 C 206.785 0.240,206.654 0.205,206.333 0.205 C 206.012 0.205,205.881 0.240,206.042 0.282 M191.877 0.453 C 192.131 0.491,192.506 0.490,192.711 0.451 C 192.916 0.411,192.708 0.380,192.250 0.381 C 191.792 0.382,191.624 0.415,191.877 0.453 M156.900 58.917 C 156.900 60.292,156.926 60.832,156.957 60.117 C 156.989 59.403,156.988 58.278,156.957 57.617 C 156.925 56.957,156.900 57.542,156.900 58.917 M156.717 77.000 C 156.717 77.504,156.748 77.710,156.786 77.458 C 156.824 77.206,156.824 76.794,156.786 76.542 C 156.748 76.290,156.717 76.496,156.717 77.000 M243.056 91.167 C 243.056 91.854,243.085 92.135,243.121 91.792 C 243.157 91.448,243.157 90.885,243.121 90.542 C 243.085 90.198,243.056 90.479,243.056 91.167 M271.081 109.583 C 271.081 120.033,271.101 124.333,271.125 119.138 C 271.149 113.943,271.149 105.393,271.125 100.138 C 271.101 94.883,271.081 99.133,271.081 109.583 M243.050 101.333 C 243.050 101.837,243.081 102.044,243.119 101.792 C 243.158 101.540,243.158 101.127,243.119 100.875 C 243.081 100.623,243.050 100.829,243.050 101.333 M138.333 147.417 C 138.644 147.737,138.936 148.000,138.982 148.000 C 139.028 148.000,138.811 147.737,138.500 147.417 C 138.189 147.096,137.897 146.833,137.851 146.833 C 137.805 146.833,138.022 147.096,138.333 147.417 " stroke="none" fill="#1c980c" fill-rule="evenodd"></path></g></svg>