<?xml version="1.0" encoding="UTF-8"?>
<!DOCTYPE svg PUBLIC "-//W3C//DTD SVG 1.1//EN" "http://www.w3.org/Graphics/SVG/1.1/DTD/svg11.dtd">
<!-- Creator: CorelDRAW 2018 (64-Bit) -->
<svg xmlns="http://www.w3.org/2000/svg" xml:space="preserve" width="80px" height="14px" version="1.1" style="shape-rendering:geometricPrecision; text-rendering:geometricPrecision; image-rendering:optimizeQuality; fill-rule:evenodd; clip-rule:evenodd"
viewBox="0 0 3.028 0.551"
 xmlns:xlink="http://www.w3.org/1999/xlink">
 <defs>
  <style type="text/css">
   <![CDATA[
    .fil0 {fill:white;fill-rule:nonzero}
   ]]>
  </style>
 </defs>
 <g id="Слой_x0020_1">
  <metadata id="CorelCorpID_0Corel-Layer"/>
  <path class="fil0" d="M2.615 0.138l0 0.275 0.275 0 0 -0.275 -0.275 0zm-0.138 -0.138l0.551 0 0 0.551 -0.551 0 0 -0.551zm0.267 0.461l0.017 0 0 -0.372 -0.017 0 0 0.372zm0.195 -0.178l0 -0.017 -0.373 0 0 0.017 0.373 0zm-0.53 -0.283l0 0.138 -0.413 0 0 0.275 0.413 0 0 0.138 -0.551 0 0 -0.551 0.551 0zm-1.033 0.413l0.413 0 0 0.138 -0.55 0 0 -0.551 0.55 0 0 0.138 -0.413 0 0 0.068 0.413 0 0 0.138 -0.413 0 0 0.069zm-0.619 -0.275l0 0.275 0.206 0c0.046,0 0.069,-0.023 0.069,-0.069l0 -0.138c0,-0.045 -0.023,-0.068 -0.069,-0.068l-0.206 0zm-0.138 -0.138l0.344 0c0.138,0 0.207,0.069 0.207,0.206l0 0.138c0,0.138 -0.069,0.207 -0.207,0.207l-0.344 0 0 -0.551zm-0.481 0.413l0 0.138 -0.138 0 0 -0.551 0.551 0 0 0.551 -0.138 0 0 -0.138 -0.275 0zm0 -0.275l0 0.137 0.275 0 0 -0.137 -0.275 0z"/>
 </g>
</svg>
