<?xml version="1.0" encoding="UTF-8"?>
<!DOCTYPE svg PUBLIC "-//W3C//DTD SVG 1.1//EN" "http://www.w3.org/Graphics/SVG/1.1/DTD/svg11.dtd">
<!-- Creator: CorelDRAW 2018 (64-Bit) -->
<svg xmlns="http://www.w3.org/2000/svg" xml:space="preserve" width="159px" height="29px" version="1.1" style="shape-rendering:geometricPrecision; text-rendering:geometricPrecision; image-rendering:optimizeQuality; fill-rule:evenodd; clip-rule:evenodd"
viewBox="0 0 12.483 2.27"
 xmlns:xlink="http://www.w3.org/1999/xlink">
 <defs>
  <style type="text/css">
   <![CDATA[
    .fil0 {fill:white;fill-rule:nonzero}
   ]]>
  </style>
 </defs>
 <g id="Слой_x0020_1">
  <metadata id="CorelCorpID_0Corel-Layer"/>
  <path class="fil0" d="M10.78 0.567l0 1.135 1.135 0 0 -1.135 -1.135 0zm-0.567 -0.567l2.27 0 0 2.27 -2.27 0 0 -2.27zm1.099 1.899l0.071 0 0 -1.532 -0.071 0 0 1.532zm0.806 -0.731l0 -0.071 -1.54 0 0 0.071 1.54 0zm-2.189 -1.168l0 0.567 -1.702 0 0 1.135 1.702 0 0 0.568 -2.269 0 0 -2.27 2.269 0zm-4.255 1.702l1.702 0 0 0.568 -2.27 0 0 -2.27 2.27 0 0 0.567 -1.702 0 0 0.284 1.702 0 0 0.568 -1.702 0 0 0.283zm-2.553 -1.135l0 1.135 0.851 0c0.189,0 0.284,-0.094 0.284,-0.283l0 -0.568c0,-0.189 -0.095,-0.284 -0.284,-0.284l-0.851 0zm-0.568 -0.567l1.419 0c0.567,0 0.851,0.284 0.851,0.851l0 0.568c0,0.567 -0.284,0.851 -0.851,0.851l-1.419 0 0 -2.27zm-1.986 1.702l0 0.568 -0.567 0 0 -2.27 2.27 0 0 2.27 -0.568 0 0 -0.568 -1.135 0zm0 -1.135l0 0.568 1.135 0 0 -0.568 -1.135 0z"/>
 </g>
</svg>
